<?xml version="1.0" standalone="no"?>
<!DOCTYPE svg PUBLIC "-//W3C//DTD SVG 20010904//EN"
 "http://www.w3.org/TR/2001/REC-SVG-20010904/DTD/svg10.dtd">
<svg version="1.0" xmlns="http://www.w3.org/2000/svg"
 width="300.000000pt" height="300.000000pt" viewBox="0 0 300.000000 300.000000"
 preserveAspectRatio="xMidYMid meet">
<metadata>
Created by potrace 1.14, written by Peter Selinger 2001-2017
</metadata>
<g transform="translate(0.000000,300.000000) scale(0.100000,-0.100000)"
fill="#000000" stroke="none">
<path d="M862 2775 c-40 -8 -90 -19 -110 -26 -67 -20 -222 -91 -222 -100 0 -5
-5 -9 -10 -9 -15 0 -107 -69 -160 -121 -126 -123 -210 -260 -259 -425 -30
-102 -33 -118 -36 -255 -3 -97 1 -146 16 -214 58 -269 201 -477 428 -623 88
-57 94 -63 127 -132 19 -40 43 -85 54 -100 l19 -27 -24 -23 c-59 -56 -81 -153
-49 -228 55 -132 214 -169 324 -75 47 40 70 38 70 -7 0 -78 60 -158 141 -188
69 -26 168 3 221 66 22 26 27 27 103 24 187 -7 408 56 557 160 27 19 28 19 49
-1 57 -52 151 -66 224 -32 125 57 156 223 61 324 -43 46 -33 59 22 32 128 -65
291 34 294 177 1 49 -23 112 -55 146 -28 30 -89 62 -119 62 -38 0 -43 12 -43
95 1 44 -2 96 -5 115 l-5 35 74 12 c267 42 443 303 376 557 -16 61 -73 176
-88 176 -4 0 -3 9 3 20 20 38 8 72 -35 100 -77 50 -149 65 -310 65 -180 0
-289 -28 -345 -88 -16 -17 -20 -30 -15 -55 5 -27 1 -41 -19 -67 -14 -19 -26
-38 -26 -44 0 -23 -24 -21 -69 8 -26 17 -52 31 -58 31 -6 0 -27 35 -47 78 -20
42 -42 86 -49 97 -142 226 -349 380 -597 445 -105 28 -299 34 -408 15z"/>
</g>
</svg>
